<svg width="50" height="50" viewBox="0 0 50 50" fill="none" xmlns="http://www.w3.org/2000/svg">
<path d="M22.9167 35.4166H27.0834V27.0833H35.4167V22.9166H27.0834V14.5833H22.9167V22.9166H14.5834V27.0833H22.9167V35.4166ZM25.0001 45.8333C22.1181 45.8333 19.4098 45.2861 16.8751 44.1916C14.3404 43.0986 12.1355 41.6145 10.2605 39.7395C8.3855 37.8645 6.90147 35.6597 5.80842 33.125C4.71397 30.5902 4.16675 27.8819 4.16675 25C4.16675 22.118 4.71397 19.4097 5.80842 16.875C6.90147 14.3402 8.3855 12.1354 10.2605 10.2604C12.1355 8.38538 14.3404 6.90065 16.8751 5.80621C19.4098 4.71315 22.1181 4.16663 25.0001 4.16663C27.882 4.16663 30.5904 4.71315 33.1251 5.80621C35.6598 6.90065 37.8647 8.38538 39.7397 10.2604C41.6147 12.1354 43.0987 14.3402 44.1917 16.875C45.2862 19.4097 45.8334 22.118 45.8334 25C45.8334 27.8819 45.2862 30.5902 44.1917 33.125C43.0987 35.6597 41.6147 37.8645 39.7397 39.7395C37.8647 41.6145 35.6598 43.0986 33.1251 44.1916C30.5904 45.2861 27.882 45.8333 25.0001 45.8333ZM25.0001 41.6666C29.6529 41.6666 33.5938 40.052 36.823 36.8229C40.0522 33.5937 41.6668 29.6527 41.6668 25C41.6668 20.3472 40.0522 16.4062 36.823 13.177C33.5938 9.94788 29.6529 8.33329 25.0001 8.33329C20.3473 8.33329 16.4063 9.94788 13.1772 13.177C9.948 16.4062 8.33342 20.3472 8.33342 25C8.33342 29.6527 9.948 33.5937 13.1772 36.8229C16.4063 40.052 20.3473 41.6666 25.0001 41.6666Z" fill="#808080"/>
</svg>
