<svg width="78" height="75" viewBox="0 0 78 75" fill="none" xmlns="http://www.w3.org/2000/svg">
<rect width="78" height="75" rx="10" fill="#35B8BE"/>
<path d="M32.75 44.5C31.375 44.5 30.2625 45.625 30.2625 47C30.2625 48.375 31.375 49.5 32.75 49.5C34.125 49.5 35.25 48.375 35.25 47C35.25 45.625 34.125 44.5 32.75 44.5ZM25.25 25.75C25.25 26.4375 25.8125 27 26.5 27H27.75L32.25 36.4875L30.5625 39.5375C29.65 41.2125 30.85 43.25 32.75 43.25H46.5C47.1875 43.25 47.75 42.6875 47.75 42C47.75 41.3125 47.1875 40.75 46.5 40.75H32.75L34.125 38.25H43.4375C44.375 38.25 45.2 37.7375 45.625 36.9625L50.1 28.85C50.2053 28.6605 50.2594 28.4468 50.2568 28.2301C50.2542 28.0133 50.195 27.801 50.0852 27.6141C49.9753 27.4272 49.8186 27.2722 49.6304 27.1645C49.4423 27.0568 49.2293 27.0001 49.0125 27H30.5125L29.675 25.2125C29.5745 24.9991 29.4154 24.8188 29.2161 24.6926C29.0169 24.5664 28.7858 24.4996 28.55 24.5H26.5C25.8125 24.5 25.25 25.0625 25.25 25.75ZM45.25 44.5C43.875 44.5 42.7625 45.625 42.7625 47C42.7625 48.375 43.875 49.5 45.25 49.5C46.625 49.5 47.75 48.375 47.75 47C47.75 45.625 46.625 44.5 45.25 44.5Z" fill="white"/>
</svg>
