<svg width="89" height="89" viewBox="0 0 89 89" fill="none" xmlns="http://www.w3.org/2000/svg">
<circle cx="44.5" cy="44.5" r="44" stroke="black" stroke-opacity="0.5"/>
<path d="M38 28.3333H52C57.3333 28.3333 61.6666 32.6666 61.6666 38V52C61.6666 54.5637 60.6482 57.0225 58.8353 58.8353C57.0225 60.6482 54.5637 61.6666 52 61.6666H38C32.6666 61.6666 28.3333 57.3333 28.3333 52V38C28.3333 35.4362 29.3518 32.9775 31.1646 31.1646C32.9775 29.3518 35.4362 28.3333 38 28.3333ZM37.6666 31.6666C36.0753 31.6666 34.5492 32.2988 33.424 33.424C32.2988 34.5492 31.6666 36.0753 31.6666 37.6666V52.3333C31.6666 55.65 34.35 58.3333 37.6666 58.3333H52.3333C53.9246 58.3333 55.4507 57.7012 56.576 56.576C57.7012 55.4507 58.3333 53.9246 58.3333 52.3333V37.6666C58.3333 34.35 55.65 31.6666 52.3333 31.6666H37.6666ZM53.75 34.1666C54.3025 34.1666 54.8324 34.3861 55.2231 34.7768C55.6138 35.1675 55.8333 35.6974 55.8333 36.25C55.8333 36.8025 55.6138 37.3324 55.2231 37.7231C54.8324 38.1138 54.3025 38.3333 53.75 38.3333C53.1974 38.3333 52.6675 38.1138 52.2768 37.7231C51.8861 37.3324 51.6666 36.8025 51.6666 36.25C51.6666 35.6974 51.8861 35.1675 52.2768 34.7768C52.6675 34.3861 53.1974 34.1666 53.75 34.1666ZM45 36.6666C47.2101 36.6666 49.3297 37.5446 50.8925 39.1074C52.4553 40.6702 53.3333 42.7898 53.3333 45C53.3333 47.2101 52.4553 49.3297 50.8925 50.8925C49.3297 52.4553 47.2101 53.3333 45 53.3333C42.7898 53.3333 40.6702 52.4553 39.1074 50.8925C37.5446 49.3297 36.6666 47.2101 36.6666 45C36.6666 42.7898 37.5446 40.6702 39.1074 39.1074C40.6702 37.5446 42.7898 36.6666 45 36.6666ZM45 40C43.6739 40 42.4021 40.5268 41.4644 41.4644C40.5268 42.4021 40 43.6739 40 45C40 46.3261 40.5268 47.5978 41.4644 48.5355C42.4021 49.4732 43.6739 50 45 50C46.3261 50 47.5978 49.4732 48.5355 48.5355C49.4732 47.5978 50 46.3261 50 45C50 43.6739 49.4732 42.4021 48.5355 41.4644C47.5978 40.5268 46.3261 40 45 40Z" fill="#808080"/>
</svg>
