<svg width="55" height="64" viewBox="0 0 55 64" fill="none" xmlns="http://www.w3.org/2000/svg">
<path d="M9.27481 41.3239C5.06755 36.5224 2.95772 31.1686 2.94531 25.2626C2.94531 19.007 5.36542 13.6758 10.2056 9.26894C14.9711 4.97461 20.7297 2.77672 27.4814 2.67529C34.2203 2.74291 39.9913 4.9408 44.7943 9.26894C49.6346 13.6647 52.0547 18.9959 52.0547 25.2626C52.0547 31.1799 49.9324 36.5337 45.6879 41.3239L36.231 51.6032C36.231 51.6032 34.7789 52.0089 33.997 51.2651C33.662 50.9608 20.4818 35.6095 20.4818 35.6095" stroke="#35B8BE" stroke-width="6.25" stroke-miterlimit="3" stroke-linecap="square"/>
<path d="M18.9179 33.885C18.2448 33.251 17.736 32.4886 17.4286 31.6533C17.1222 30.8155 17.0206 29.9271 17.1308 29.05C17.2425 27.1902 18.0615 25.669 19.6254 24.4514C21.1519 23.2679 22.9018 22.7946 24.8751 22.9636C26.0666 23.0313 27.1091 23.3017 28.0398 23.8766C28.7153 24.2187 29.32 24.6649 29.8269 25.1953L37.7204 33.4796" stroke="#35B8BE" stroke-width="6.25" stroke-miterlimit="3" stroke-linecap="round" stroke-linejoin="round"/>
<path d="M35.0395 52.9557L18.9179 33.885M27.5183 60.2256L9.27481 41.3239" stroke="#35B8BE" stroke-width="6.25" stroke-miterlimit="3" stroke-linecap="round"/>
</svg>
