<svg width="89" height="89" viewBox="0 0 89 89" fill="none" xmlns="http://www.w3.org/2000/svg">
<circle cx="44.5" cy="44.5" r="44" stroke="black" stroke-opacity="0.5"/>
<path d="M41.6666 50L50.3166 45L41.6666 40V50ZM60.9333 36.95C61.15 37.7333 61.3 38.7833 61.4 40.1166C61.5166 41.45 61.5666 42.6 61.5666 43.6L61.6666 45C61.6666 48.65 61.4 51.3333 60.9333 53.05C60.5166 54.55 59.55 55.5166 58.05 55.9333C57.2666 56.15 55.8333 56.3 53.6333 56.4C51.4666 56.5166 49.4833 56.5666 47.65 56.5666L45 56.6666C38.0166 56.6666 33.6666 56.4 31.95 55.9333C30.45 55.5166 29.4833 54.55 29.0666 53.05C28.85 52.2666 28.7 51.2166 28.6 49.8833C28.4833 48.55 28.4333 47.4 28.4333 46.4L28.3333 45C28.3333 41.35 28.6 38.6666 29.0666 36.95C29.4833 35.45 30.45 34.4833 31.95 34.0666C32.7333 33.85 34.1666 33.7 36.3666 33.6C38.5333 33.4833 40.5166 33.4333 42.35 33.4333L45 33.3333C51.9833 33.3333 56.3333 33.6 58.05 34.0666C59.55 34.4833 60.5166 35.45 60.9333 36.95Z" fill="#808080"/>
</svg>
